# xmcd
#
# Track frame offsets: 
#        150
#        13000
#        39905
#        55929
#        73301
#        94646
#        107939
#        123568
#        145627
#        161493
#        182790
#        198889
#        214080
#        232946
#
# Disc length: 3325 seconds
#
# Revision: 0
# Processed by: cddbd v1.5.2PL0 Copyright (c) Steve Scherf et al.
# Submitted via: ExactAudioCopy v1.3
#
DISCID=bf0cfb0e
DTITLE=Various Artist - Soul Bag Sampler, Mar 2010
DYEAR=2010
DGENRE=Blues
TTITLE0=Eric Bibb - Turning pages
TTITLE1=The Robert Cray Band - Chicken in the kitchen
TTITLE2=Alabama Mike - Day to day
TTITLE3=Long John Hunter - Beggar man
TTITLE4=N'Dambi - L.I.E.
TTITLE5=Mighty Mo Rodgers - Blues for a blue planet
TTITLE6=Honeymen - Two time woman
TTITLE7=Harmonica Shah - I wonder why?
TTITLE8=Nico and His Rhythm Dudes - Polish woman
TTITLE9=Darrell Nulisch - Let a woman be a woman
TTITLE10=Michael Olatuja - Little sister
TTITLE11=Quintus McCormick Blues Band - Fifty-fifty
TTITLE12=Eric Deaton - Green level
TTITLE13=Harrison Kennedy - Cry for mother Africa
EXTD=
EXTT0=
EXTT1=
EXTT2=
EXTT3=
EXTT4=
EXTT5=
EXTT6=
EXTT7=
EXTT8=
EXTT9=
EXTT10=
EXTT11=
EXTT12=
EXTT13=
PLAYORDER=
